<svg xmlns="http://www.w3.org/2000/svg" width="26.246" height="26.24" viewBox="0 0 26.246 26.24">
  <path id="instagram" d="M13.051,38.217a6.728,6.728,0,1,0,6.728,6.728A6.717,6.717,0,0,0,13.051,38.217Zm0,11.1a4.374,4.374,0,1,1,4.374-4.374,4.382,4.382,0,0,1-4.374,4.374Zm8.572-11.377a1.569,1.569,0,1,1-1.569-1.569A1.566,1.566,0,0,1,21.623,37.942Zm4.456,1.593a7.766,7.766,0,0,0-2.12-5.5,7.817,7.817,0,0,0-5.5-2.12c-2.166-.123-8.66-.123-10.826,0a7.805,7.805,0,0,0-5.5,2.114,7.791,7.791,0,0,0-2.12,5.5c-.123,2.166-.123,8.66,0,10.826a7.766,7.766,0,0,0,2.12,5.5,7.827,7.827,0,0,0,5.5,2.12c2.166.123,8.66.123,10.826,0a7.766,7.766,0,0,0,5.5-2.12,7.817,7.817,0,0,0,2.12-5.5C26.2,48.189,26.2,41.7,26.079,39.535ZM23.28,52.68a4.428,4.428,0,0,1-2.494,2.494c-1.727.685-5.826.527-7.735.527s-6.013.152-7.735-.527A4.428,4.428,0,0,1,2.822,52.68c-.685-1.727-.527-5.826-.527-7.735s-.152-6.013.527-7.735a4.428,4.428,0,0,1,2.494-2.494c1.727-.685,5.826-.527,7.735-.527s6.013-.152,7.735.527A4.428,4.428,0,0,1,23.28,37.21c.685,1.727.527,5.826.527,7.735S23.965,50.958,23.28,52.68Z" transform="translate(0.075 -31.825)" fill="#161616"/>
</svg>
