<svg xmlns="http://www.w3.org/2000/svg" xmlns:xlink="http://www.w3.org/1999/xlink" width="191" height="66" viewBox="0 0 191 66">
  <defs>
    <clipPath id="clip-path">
      <rect id="Rectangle_2" data-name="Rectangle 2" width="191" height="66" transform="translate(0 0)" fill="none"/>
    </clipPath>
  </defs>
  <g id="Limelight_ID_Black" data-name="Limelight ID Black" transform="translate(0 0)">
    <g id="Group_4" data-name="Group 4">
      <g id="Group_3" data-name="Group 3" clip-path="url(#clip-path)">
        <path id="Path_19" data-name="Path 19" d="M0,20.93V1.85a.3.3,0,0,1,.3-.3A5.056,5.056,0,0,1,5.357,6.6V20.62c0,2.414,2.762,3.032,7.836,1.865a.305.305,0,0,1,.374.254l.459,3.87a.31.31,0,0,1-.278.338c-5.315.529-8.809.837-10.75-.073-1.641-.768-3-1.82-3-5.944" fill="#1c1c1c"/>
        <path id="Path_20" data-name="Path 20" d="M15.135,2.99A3.065,3.065,0,0,1,18.468,0C20.46,0,21.8,1.237,21.8,2.885a3.081,3.081,0,0,1-3.33,3.095,3.064,3.064,0,0,1-3.332-2.99M16.6,8.558h3.729a.815.815,0,0,1,.815.815V26.234a.816.816,0,0,1-.815.815H16.6a.815.815,0,0,1-.815-.815V9.373a.815.815,0,0,1,.815-.815" fill="#1c1c1c"/>
        <path id="Path_21" data-name="Path 21" d="M80.774,20.93V1.547h.605A4.754,4.754,0,0,1,86.132,6.3V20.62a2.14,2.14,0,0,0,2.3,2.44,3.486,3.486,0,0,0,1.511-.345l.242,4.159a8.715,8.715,0,0,1-2.781.447c-4.159,0-6.631-2.268-6.631-6.392" fill="#1c1c1c"/>
        <path id="Path_22" data-name="Path 22" d="M92.18,2.99A3.065,3.065,0,0,1,95.513,0c1.992,0,3.331,1.237,3.331,2.885a3.346,3.346,0,0,1-6.663.1m1.468,5.567h3.729a.815.815,0,0,1,.815.815V26.234a.815.815,0,0,1-.815.815H93.649a.816.816,0,0,1-.815-.815V9.373a.815.815,0,0,1,.815-.815" fill="#1c1c1c"/>
        <path id="Path_23" data-name="Path 23" d="M55.71,16.462v9.787a.8.8,0,0,1-.8.8H51.151a.8.8,0,0,1-.8-.8V17.287c0-2.99-1.341-4.364-3.5-4.364-2.4,0-4.087,1.547-4.087,4.846v8.48a.8.8,0,0,1-.8.8H38.2a.8.8,0,0,1-.8-.8V17.287c0-2.99-1.273-4.364-3.505-4.364-2.368,0-4.052,1.547-4.052,4.846v8.48a.8.8,0,0,1-.8.8H25.286a.8.8,0,0,1-.8-.8V9.355a.8.8,0,0,1,.8-.8h3.521a.8.8,0,0,1,.8.8v1.332a7.484,7.484,0,0,1,5.807-2.4,7.087,7.087,0,0,1,5.53,2.29.79.79,0,0,0,1.16.046,8.5,8.5,0,0,1,6.052-2.337c4.4,0,7.557,2.541,7.557,8.178" fill="#1c1c1c"/>
        <path id="Path_24" data-name="Path 24" d="M73.176,21.239,75.7,23.974a.522.522,0,0,1,0,.717A9.882,9.882,0,0,1,68.4,27.323c-6.388,0-10.542-4.024-10.542-9.522,0-5.532,4.189-9.519,9.891-9.519,5.086,0,9.294,3.263,9.538,8.9a.527.527,0,0,1-.427.534L64.325,20.142a.526.526,0,0,0-.345.8,5.071,5.071,0,0,0,4.559,2.086,6.254,6.254,0,0,0,4.637-1.786M63.114,17.252l8.4-1.638a.529.529,0,0,0,.379-.73,4.31,4.31,0,0,0-4.146-2.545c-2.679,0-4.534,1.786-4.636,4.913" fill="#1c1c1c"/>
        <path id="Path_25" data-name="Path 25" d="M120.836,8.557a.7.7,0,0,1,.7.7v14.7c0,6.874-3.709,10.036-10.373,10.036A15.889,15.889,0,0,1,102.6,31.81a.692.692,0,0,1-.2-.91l1.447-2.619a.694.694,0,0,1,.984-.25,11.472,11.472,0,0,0,5.922,1.661c3.777,0,5.427-1.718,5.427-5.053v-.789a7.605,7.605,0,0,1-5.839,2.3c-5.12,0-9.24-3.539-9.24-8.937s4.119-8.932,9.24-8.932a7.967,7.967,0,0,1,4.969,1.51.7.7,0,0,0,1.145-.538.7.7,0,0,1,.7-.7Zm-4.59,8.66c0-2.715-2.027-4.534-4.843-4.534s-4.878,1.819-4.878,4.534,2.062,4.536,4.878,4.536,4.843-1.818,4.843-4.536" fill="#1c1c1c"/>
        <path id="Path_26" data-name="Path 26" d="M143.82,16.462v9.394a1.191,1.191,0,0,1-1.191,1.191h-2.978a1.191,1.191,0,0,1-1.191-1.191v-8.57c0-2.99-1.373-4.364-3.742-4.364-2.576,0-4.431,1.579-4.431,4.983v7.951a1.191,1.191,0,0,1-1.191,1.191h-2.978a1.191,1.191,0,0,1-1.191-1.191V2.739a1.192,1.192,0,0,1,1.191-1.191H129.1a1.191,1.191,0,0,1,1.191,1.191V8.167a1.185,1.185,0,0,0,1.735,1.052,8.957,8.957,0,0,1,4.138-.936c4.362,0,7.66,2.541,7.66,8.178" fill="#1c1c1c"/>
        <path id="Path_27" data-name="Path 27" d="M158.158,25.6a.726.726,0,0,1-.346.894,8.242,8.242,0,0,1-3.776.827c-4.4,0-6.9-2.235-6.9-6.634V5.183a.716.716,0,0,1,.716-.715h3.927a.715.715,0,0,1,.714.715V8.254a.716.716,0,0,0,.716.716h3.137a.715.715,0,0,1,.715.715v2.693a.715.715,0,0,1-.715.715h-3.137a.716.716,0,0,0-.716.715V20.62a2.132,2.132,0,0,0,2.267,2.44,3.916,3.916,0,0,0,1.53-.31.7.7,0,0,1,.95.378Z" fill="#1c1c1c"/>
        <path id="Path_28" data-name="Path 28" d="M34.705,35.256a.678.678,0,0,1,.677.678l0,14.032c0,6.392-3.335,9.517-8.762,9.515-3.419,0-5.954-1.265-7.319-3.711a.667.667,0,0,0-1.162,0c-1.374,2.445-3.929,3.709-7.319,3.709-5.428,0-8.758-3.129-8.758-9.524l0-14.029a.678.678,0,0,1,.679-.677h.4a.678.678,0,0,1,.677.678l0,13.962c0,5.567,2.609,7.974,7.005,7.976,4.361,0,7.007-2.405,7.009-7.974l0-13.962a.677.677,0,0,1,.677-.677h.43a.677.677,0,0,1,.677.678l0,13.961c0,5.568,2.609,7.976,7.005,7.976,4.329,0,7.007-2.4,7.009-7.973l0-13.961a.678.678,0,0,1,.679-.678Z" fill="#1c1c1c"/>
        <path id="Path_29" data-name="Path 29" d="M40.237,50.346a8.966,8.966,0,1,1,17.929,0,8.966,8.966,0,1,1-17.929,0m16.179,0c0-4.5-3.088-7.561-7.212-7.563s-7.212,3.057-7.214,7.56,3.089,7.561,7.21,7.561,7.215-3.058,7.217-7.558" fill="#1c1c1c"/>
        <path id="Path_30" data-name="Path 30" d="M71.163,41.245v1.684c-.137,0-.274-.035-.412-.035-3.984,0-6.356,2.645-6.356,7.078v8.835a.514.514,0,0,1-.515.514h-.691a.514.514,0,0,1-.513-.514l0-16.913a.514.514,0,0,1,.513-.514h.622a.513.513,0,0,1,.513.514v1.528a.511.511,0,0,0,.9.332,7.175,7.175,0,0,1,5.933-2.509" fill="#1c1c1c"/>
        <path id="Path_31" data-name="Path 31" d="M82.392,50.19,78.42,53.811a.628.628,0,0,0-.2.464V58.7a.629.629,0,0,1-.63.629h-.461A.628.628,0,0,1,76.5,58.7L76.5,34.452a.629.629,0,0,1,.63-.628h.459a.628.628,0,0,1,.627.629l0,15.989a.628.628,0,0,0,1.051.464l10.244-9.354a.627.627,0,0,1,.424-.164H91.89l-7.309,6.853a.628.628,0,0,0-.063.849l7.313,9.218a.628.628,0,0,1-.492,1.019h-.525a.628.628,0,0,1-.492-.238l-7.015-8.828a.627.627,0,0,0-.914-.073" fill="#1c1c1c"/>
        <path id="Path_32" data-name="Path 32" d="M94.554,57.162l.791-1.373a10.425,10.425,0,0,0,6.456,2.167c3.78,0,5.29-1.339,5.293-3.367,0-5.223-11.885-1.378-11.883-8.425,0-2.715,2.267-4.913,6.8-4.913a11.036,11.036,0,0,1,6.15,1.756l-.792,1.374a9.241,9.241,0,0,0-5.39-1.616c-3.5,0-5.05,1.441-5.05,3.367,0,5.4,11.883,1.583,11.881,8.423,0,2.922-2.508,4.915-7.075,4.913a11.241,11.241,0,0,1-7.179-2.305" fill="#1c1c1c"/>
        <path id="Path_33" data-name="Path 33" d="M130.482,50.369c0,5.4-3.815,9.1-8.865,9.1a8.1,8.1,0,0,1-6.4-2.919.492.492,0,0,0-.875.31l0,8.639a.5.5,0,0,1-.5.5h-.726a.5.5,0,0,1-.5-.5l.007-23.615a.5.5,0,0,1,.5-.5h.656a.5.5,0,0,1,.5.5v2.06a.492.492,0,0,0,.881.3,8.081,8.081,0,0,1,6.469-2.994,8.692,8.692,0,0,1,8.86,9.11m-1.718,0c0-4.5-3.123-7.563-7.245-7.563S114.3,45.86,114.3,50.364s3.088,7.56,7.21,7.563,7.249-3.058,7.249-7.558" fill="#1c1c1c"/>
        <path id="Path_34" data-name="Path 34" d="M151.115,41.915l0,16.914a.514.514,0,0,1-.513.513h-.657a.513.513,0,0,1-.513-.514V56.847a.509.509,0,0,0-.911-.314,8.053,8.053,0,0,1-6.44,2.945,8.7,8.7,0,0,1-8.862-9.11c0-5.4,3.817-9.107,8.864-9.107a8.1,8.1,0,0,1,6.411,2.932.509.509,0,0,0,.907-.318V41.915a.513.513,0,0,1,.513-.513h.692a.513.513,0,0,1,.513.513m-1.72,8.457c0-4.5-3.088-7.561-7.21-7.563s-7.214,3.057-7.217,7.56,3.091,7.561,7.212,7.561,7.214-3.055,7.214-7.558" fill="#1c1c1c"/>
        <path id="Path_35" data-name="Path 35" d="M154.98,50.375a8.74,8.74,0,0,1,9.069-9.105,8.051,8.051,0,0,1,6.271,2.607.8.8,0,0,1-.13,1.175l0,0a.784.784,0,0,1-1.047-.106,6.621,6.621,0,0,0-5.091-2.133c-4.224,0-7.315,3.022-7.317,7.56s3.088,7.559,7.315,7.561a6.627,6.627,0,0,0,5.09-2.132.785.785,0,0,1,1.047-.1.8.8,0,0,1,.125,1.179,8.124,8.124,0,0,1-6.263,2.6,8.761,8.761,0,0,1-9.067-9.109" fill="#1c1c1c"/>
        <path id="Path_36" data-name="Path 36" d="M188.9,55.436l.821.936a.306.306,0,0,1,0,.4,8.6,8.6,0,0,1-6.6,2.718c-5.427,0-9.274-3.784-9.271-9.112s3.642-9.105,8.727-9.105c4.773,0,8.173,3.577,8.412,8.355l-15.148,2.953A7.726,7.726,0,0,0,188.9,55.436m-13.361-5.193c0,.343.035.722.07,1.067l13.67-2.678a6.68,6.68,0,0,0-6.7-5.845c-4.124,0-7.043,3.09-7.045,7.456" fill="#1c1c1c"/>
      </g>
    </g>
  </g>
</svg>
