<svg xmlns="http://www.w3.org/2000/svg" width="29.541" height="24.007" viewBox="0 0 29.541 24.007">
  <path id="twitter" d="M29.541,2.842A12.107,12.107,0,0,1,26.06,3.8,6.078,6.078,0,0,0,28.725.443a12.133,12.133,0,0,1-3.849,1.471A6.064,6.064,0,0,0,14.549,7.442,17.206,17.206,0,0,1,2.057,1.109,6.068,6.068,0,0,0,3.932,9.2a6.033,6.033,0,0,1-2.745-.758,6.067,6.067,0,0,0,4.861,6.019,6.072,6.072,0,0,1-2.737.1,6.067,6.067,0,0,0,5.661,4.209A12.19,12.19,0,0,1,0,21.284a17.155,17.155,0,0,0,9.29,2.723c11.252,0,17.609-9.5,17.226-18.028a12.312,12.312,0,0,0,3.024-3.137Z" fill="#161616"/>
</svg>
